<?xml version="1.0" standalone="no"?>
<!DOCTYPE svg PUBLIC "-//W3C//DTD SVG 20010904//EN"
 "http://www.w3.org/TR/2001/REC-SVG-20010904/DTD/svg10.dtd">
<svg version="1.0" xmlns="http://www.w3.org/2000/svg"
 width="256.000000pt" height="256.000000pt" viewBox="0 0 256.000000 256.000000"
 preserveAspectRatio="xMidYMid meet">

<g transform="translate(0.000000,256.000000) scale(0.100000,-0.100000)"
fill="#aec6cf" stroke="none">
<path d="M1060 2514 c-114 -22 -382 -159 -565 -289 -91 -64 -173 -149 -196
-199 -18 -42 -19 -48 -4 -75 26 -51 64 -78 185 -132 205 -93 238 -127 182
-191 -31 -37 -83 -19 -197 68 -173 131 -241 152 -296 93 -58 -62 -89 -234 -89
-504 0 -344 53 -525 156 -525 44 0 121 41 210 111 128 101 186 120 223 73 12
-15 21 -32 21 -39 0 -33 -51 -69 -203 -144 -139 -68 -166 -84 -181 -114 -32
-58 -17 -98 67 -181 40 -39 83 -80 97 -91 59 -47 283 -185 300 -185 5 0 15 -6
22 -13 36 -34 239 -107 306 -110 61 -3 94 15 116 59 18 39 22 157 6 199 -6 15
-11 69 -13 120 -2 107 11 135 68 135 55 0 70 -28 68 -126 -1 -46 -7 -100 -12
-121 -26 -92 -9 -206 36 -252 20 -20 119 -18 180 4 86 31 198 80 211 92 7 7
17 13 22 13 17 0 214 123 290 181 87 66 166 147 181 186 16 42 3 88 -34 119
-18 15 -95 58 -173 95 -133 63 -184 101 -184 134 0 7 9 24 21 39 37 48 89 30
233 -81 138 -107 214 -128 265 -74 121 130 121 872 0 1002 -52 56 -118 37
-274 -81 -103 -77 -144 -100 -179 -100 -26 0 -66 41 -66 68 0 30 70 79 197
135 179 79 219 123 194 206 -12 43 -96 132 -185 198 -133 98 -353 218 -506
276 -73 27 -170 29 -199 3 -45 -40 -47 -72 -25 -358 8 -107 -5 -138 -60 -138
-64 0 -80 51 -61 187 25 175 16 274 -27 310 -17 15 -90 24 -128 17z"/>
</g>
</svg>
