<?xml version="1.0" standalone="no"?>
<!DOCTYPE svg PUBLIC "-//W3C//DTD SVG 20010904//EN"
 "http://www.w3.org/TR/2001/REC-SVG-20010904/DTD/svg10.dtd">
<svg version="1.0" xmlns="http://www.w3.org/2000/svg"
 width="256.000000pt" height="256.000000pt" viewBox="0 0 256.000000 256.000000"
 preserveAspectRatio="xMidYMid meet">
<metadata>
Created by potrace 1.15, written by Peter Selinger 2001-2017
</metadata>
<g transform="translate(0.000000,256.000000) scale(0.100000,-0.100000)"
fill="#000000" stroke="none">
<path d="M260 2135 c0 -118 2 -215 4 -215 2 0 15 18 29 39 14 21 41 53 59 70
l33 31 241 0 c195 0 250 3 285 16 142 51 189 58 369 58 180 0 221 -6 370 -58
38 -14 87 -16 288 -14 l243 3 -51 58 c-29 31 -56 57 -61 57 -17 0 -166 124
-178 148 l-11 22 -559 0 c-548 0 -559 0 -607 -21 -27 -12 -61 -30 -76 -40 -35
-25 -36 -25 -40 19 l-3 37 -167 3 -168 2 0 -215z"/>
<path d="M2230 2180 l0 -171 43 -55 c23 -31 50 -70 59 -87 17 -31 18 -25 18
226 l0 257 -60 0 -60 0 0 -170z"/>
<path d="M1141 2075 c-212 -39 -389 -145 -512 -308 -110 -145 -159 -291 -159
-469 0 -205 70 -382 207 -528 167 -178 358 -260 603 -260 245 0 436 82 603
260 89 94 155 214 187 340 19 72 21 105 18 215 -4 109 -9 143 -33 213 -80 236
-270 424 -510 507 -66 23 -207 45 -275 44 -30 0 -88 -7 -129 -14z m315 -70
c147 -33 255 -94 366 -206 37 -37 68 -72 68 -77 0 -5 9 -17 19 -26 30 -27 88
-154 107 -231 20 -84 22 -237 5 -320 -22 -102 -57 -173 -140 -284 -295 -395
-907 -395 -1202 0 -81 107 -107 161 -135 269 -22 84 -22 243 0 333 15 66 67
186 90 210 6 7 31 38 55 70 171 224 474 328 767 262z"/>
<path d="M1190 1943 c-292 -49 -503 -240 -564 -510 -32 -142 -14 -280 54 -422
33 -68 57 -100 123 -166 139 -137 280 -195 477 -195 200 0 340 58 480 200 96
96 138 169 170 295 78 304 -92 632 -389 751 -107 43 -257 63 -351 47z m286
-107 c192 -61 337 -222 379 -423 37 -172 -5 -340 -120 -486 -25 -32 -54 -61
-63 -64 -9 -4 -20 -10 -23 -15 -7 -11 -59 -41 -126 -74 -168 -82 -400 -65
-557 40 -36 24 -72 46 -80 49 -8 3 -36 32 -61 64 -165 209 -178 476 -32 691
146 214 420 302 683 218z"/>
<path d="M1147 1751 c-175 -48 -310 -193 -347 -375 -29 -145 37 -332 154 -432
63 -54 170 -102 256 -115 180 -28 376 57 473 203 97 149 110 314 36 465 -102
210 -342 316 -572 254z m286 -140 c52 -25 147 -100 147 -117 0 -2 11 -21 23
-42 33 -51 51 -132 42 -190 -16 -117 -108 -237 -220 -289 -51 -23 -73 -27
-145 -27 -106 0 -184 32 -252 102 -44 46 -107 142 -93 142 4 0 3 6 -3 13 -19
22 -25 110 -11 157 7 25 13 47 14 50 5 22 45 82 83 123 109 116 273 147 415
78z"/>
<path d="M1196 1421 c-45 -30 -66 -70 -66 -126 0 -90 57 -145 150 -145 92 0
150 55 150 143 0 60 -20 99 -63 126 -45 28 -130 29 -171 2z"/>
<path d="M202 1608 l3 -173 105 -3 106 -3 12 61 c16 78 56 172 99 233 18 26
33 49 33 52 0 3 -81 5 -180 5 l-180 0 2 -172z"/>
<path d="M2000 1771 c0 -5 3 -11 8 -13 29 -13 105 -176 123 -266 l13 -63 101
3 100 3 3 173 2 172 -175 0 c-99 0 -175 -4 -175 -9z"/>
<path d="M202 973 l3 -168 173 -3 c107 -1 172 1 172 7 0 6 -13 32 -28 58 -34
58 -76 160 -92 226 l-12 47 -109 0 -109 0 2 -167z"/>
<path d="M2130 1093 c-16 -66 -58 -168 -92 -226 -15 -26 -28 -52 -28 -58 0 -6
63 -8 168 -7 l167 3 3 168 2 167 -104 0 -104 0 -12 -47z"/>
<path d="M2342 753 c-1 -6 -27 -49 -57 -94 l-55 -83 2 -160 3 -161 53 -1 c32
-1 55 3 58 10 2 6 3 122 1 256 -1 135 -3 240 -5 233z"/>
<path d="M260 462 l0 -212 138 4 c75 2 152 5 170 5 29 1 32 4 32 31 0 33 12
37 50 15 21 -12 124 -14 625 -15 530 -1 598 -2 581 -15 -19 -14 -19 -15 7 -15
15 0 27 6 27 13 0 11 118 102 174 134 12 6 39 30 61 52 l39 41 -289 0 c-272 0
-294 -2 -355 -22 -57 -19 -86 -22 -240 -22 -154 0 -183 3 -240 22 -61 20 -83
22 -356 22 l-292 0 -58 78 c-32 42 -62 81 -66 87 -4 5 -8 -86 -8 -203z"/>
</g>
</svg>
